<svg xmlns="http://www.w3.org/2000/svg" width="210" height="64" viewBox="0 0 210 64" role="img" aria-labelledby="title desc">
  <title id="title">App Store coming soon</title>
  <desc id="desc">Coming soon badge for iOS on the App Store</desc>
  <rect width="210" height="64" rx="14" fill="#173c26"/>
  <circle cx="38" cy="32" r="18" fill="#ffffff" opacity=".12"/>
  <path d="M43.5 18.8c-1.7.1-3.6 1.1-4.8 2.5-1.1 1.3-2 3.1-1.7 4.9 1.9.1 3.8-1 4.9-2.4 1.2-1.5 2-3.3 1.6-5z" fill="#ffffff"/>
  <path d="M49.7 42.8c-.9 2-1.4 2.9-2.5 4.7-1.6 2.4-3.8 5.4-6.6 5.4-2.5 0-3.1-1.6-6.5-1.6-3.4 0-4.1 1.6-6.5 1.6-2.8 0-5-2.8-6.6-5.2-4.5-6.9-5-15-.2-19.3 1.7-1.5 4-2.4 6.7-2.4 2.6 0 5.1 1.7 6.6 1.7 1.5 0 4.3-2.1 7.3-1.8 1.3.1 4.9.5 7.2 3.9-6.3 3.5-5.3 12 .1 14.9z" fill="#ffffff"/>
  <text x="68" y="25" fill="#dfeadb" font-family="Arial, Helvetica, sans-serif" font-size="12" font-weight="700">COMING SOON ON</text>
  <text x="68" y="45" fill="#ffffff" font-family="Arial, Helvetica, sans-serif" font-size="21" font-weight="900">App Store</text>
</svg>
